<mxfile host="Electron" agent="Mozilla/5.0 (Macintosh; Intel Mac OS X 10_15_7) AppleWebKit/537.36 (KHTML, like Gecko) draw.io/25.0.2 Chrome/128.0.6613.186 Electron/32.2.5 Safari/537.36" version="25.0.2">
  <diagram id="zuWU2OpNOw_lcrMbAqPk" name="Diagram">
    <mxGraphModel dx="2042" dy="2078" grid="1" gridSize="10" guides="1" tooltips="1" connect="1" arrows="1" fold="1" page="1" pageScale="1" pageWidth="800" pageHeight="600" math="0" shadow="0">
      <root>
        <object label="" date_created="01-10-2025" date_updated="01-10-2025" diagram_version="1.0.0" generation="2.0" release="v3.0.0" id="0">
          <mxCell />
        </object>
        <mxCell id="YG0ngXAhYmS6pUv4ZpfQ-1" value="IBM Cloud" parent="0" />
        <mxCell id="Z31q9Lzd5Sn42hzIHhV2-23" value="&lt;font style=&quot;font-size: 16px;&quot; face=&quot;IBM Plex Sans&quot;&gt;Deployed by SM Secret Group Module&lt;/font&gt;" style="rounded=0;whiteSpace=wrap;html=1;strokeColor=#FA4D56;fillColor=none;gradientColor=none;fontFamily=Helvetica;dashed=1;dashPattern=12 12;fontStyle=1" parent="YG0ngXAhYmS6pUv4ZpfQ-1" vertex="1">
          <mxGeometry x="-780" y="-690" width="155" height="65" as="geometry" />
        </mxCell>
        <mxCell id="3krA8gDyzR80AWlKwZl9-1" value="" style="container=1;collapsible=0;expand=0;recursiveResize=0;html=1;whiteSpace=wrap;strokeColor=#1192E8;fillColor=default;strokeWidth=1" parent="YG0ngXAhYmS6pUv4ZpfQ-1" vertex="1">
          <mxGeometry x="-598" y="-1188" width="396" height="520" as="geometry" />
        </mxCell>
        <mxCell id="3krA8gDyzR80AWlKwZl9-2" value="IBM Cloud" style="shape=rect;fillColor=none;aspect=fixed;resizable=0;labelPosition=right;verticalLabelPosition=middle;align=left;verticalAlign=middle;strokeColor=none;part=1;spacingLeft=5;fontSize=14;" parent="3krA8gDyzR80AWlKwZl9-1" vertex="1">
          <mxGeometry width="48" height="48" relative="1" as="geometry" />
        </mxCell>
        <mxCell id="3krA8gDyzR80AWlKwZl9-3" value="" style="fillColor=#1192E8;shape=mxgraph.ibm_cloud.ibm-cloud;strokeColor=none;dashed=0;outlineConnect=0;html=1;labelPosition=center;verticalLabelPosition=bottom;verticalAlign=top;part=1;movable=0;resizable=0;rotatable=0;" parent="3krA8gDyzR80AWlKwZl9-2" vertex="1">
          <mxGeometry width="24" height="24" relative="1" as="geometry">
            <mxPoint x="12" y="12" as="offset" />
          </mxGeometry>
        </mxCell>
        <mxCell id="3krA8gDyzR80AWlKwZl9-4" value="" style="shape=rect;fillColor=#1192E8;aspect=fixed;resizable=0;labelPosition=right;verticalLabelPosition=middle;align=left;verticalAlign=middle;strokeColor=none;part=1;spacingLeft=5;fontSize=14;" parent="3krA8gDyzR80AWlKwZl9-1" vertex="1">
          <mxGeometry width="4" height="48" relative="1" as="geometry" />
        </mxCell>
        <mxCell id="YG0ngXAhYmS6pUv4ZpfQ-3" value="Resource Group" parent="0" />
        <mxCell id="3krA8gDyzR80AWlKwZl9-5" value="" style="container=1;collapsible=0;expand=0;recursiveResize=0;html=1;whiteSpace=wrap;strokeColor=#FA4D56;fillColor=#FFF1F1;dashed=1;dashPattern=1 3;strokeWidth=2" parent="YG0ngXAhYmS6pUv4ZpfQ-3" vertex="1">
          <mxGeometry x="-575" y="-1143" width="350" height="460" as="geometry" />
        </mxCell>
        <mxCell id="3krA8gDyzR80AWlKwZl9-6" value="Resource Group" style="shape=rect;fillColor=none;aspect=fixed;resizable=0;labelPosition=right;verticalLabelPosition=middle;align=left;verticalAlign=middle;strokeColor=none;part=1;spacingLeft=5;fontSize=14;" parent="3krA8gDyzR80AWlKwZl9-5" vertex="1">
          <mxGeometry width="48" height="48" relative="1" as="geometry" />
        </mxCell>
        <mxCell id="3krA8gDyzR80AWlKwZl9-7" value="" style="fillColor=#FA4D56;shape=mxgraph.ibm_cloud.group--resource;strokeColor=none;dashed=0;outlineConnect=0;html=1;labelPosition=center;verticalLabelPosition=bottom;verticalAlign=top;part=1;movable=0;resizable=0;rotatable=0;" parent="3krA8gDyzR80AWlKwZl9-6" vertex="1">
          <mxGeometry width="24" height="24" relative="1" as="geometry">
            <mxPoint x="12" y="12" as="offset" />
          </mxGeometry>
        </mxCell>
        <mxCell id="YG0ngXAhYmS6pUv4ZpfQ-4" value="Identity &amp; Access Management" parent="0" />
        <mxCell id="1" parent="0" />
        <mxCell id="DygciU7ir5P4Vzxs_aio-1" value="Secrets-Manager" parent="0" />
        <object label="" release="v3.0.0" generation="2.0" id="3krA8gDyzR80AWlKwZl9-8">
          <mxCell style="rounded=0;whiteSpace=wrap;html=1;fontFamily=IBM Plex Sans;fontSize=14;fillColor=default;spacingBottom=-28;spacingTop=0;labelPosition=-100;verticalLabelPosition=top;align=center;verticalAlign=bottom;spacingLeft=-24;spacing=0;expand=0;recursiveResize=0;spacingRight=0;container=1;collapsible=0;strokeColor=#FA4D56;strokeWidth=1;" parent="DygciU7ir5P4Vzxs_aio-1" vertex="1">
            <mxGeometry x="-555.5" y="-1103" width="311" height="400" as="geometry">
              <mxRectangle width="670" as="alternateBounds" />
            </mxGeometry>
          </mxCell>
        </object>
        <mxCell id="3krA8gDyzR80AWlKwZl9-9" value="" style="rounded=0;whiteSpace=wrap;html=1;strokeColor=#FA4D56;fillColor=#FA4D56;fontFamily=IBM Plex Sans;fontSize=14;" parent="3krA8gDyzR80AWlKwZl9-8" vertex="1">
          <mxGeometry width="4" height="48" as="geometry" />
        </mxCell>
        <mxCell id="3krA8gDyzR80AWlKwZl9-10" value="Secrets Manager" style="text;html=1;strokeColor=none;fillColor=none;align=left;verticalAlign=middle;whiteSpace=wrap;rounded=0;fontFamily=IBM Plex Sans;fontSize=14;" parent="3krA8gDyzR80AWlKwZl9-8" vertex="1">
          <mxGeometry x="48" y="14" width="163" height="20" as="geometry" />
        </mxCell>
        <mxCell id="3krA8gDyzR80AWlKwZl9-11" value="" style="shape=image;aspect=fixed;image=data:image/svg+xml,PD94bWwgdmVyc2lvbj0iMS4wIiBlbmNvZGluZz0iVVRGLTgiPz4KPHN2ZyB3aWR0aD0iMzJweCIgaGVpZ2h0PSIzMnB4IiB2aWV3Qm94PSIwIDAgMzIgMzIiIHZlcnNpb249IjEuMSIgeG1sbnM9Imh0dHA6Ly93d3cudzMub3JnLzIwMDAvc3ZnIiB4bWxuczp4bGluaz0iaHR0cDovL3d3dy53My5vcmcvMTk5OS94bGluayI+CiAgICA8dGl0bGU+aWJtLWNsb3VkLS1zZWNyZXRzLW1hbmFnZXIoMSk8L3RpdGxlPgogICAgPGcgaWQ9IlBhZ2UtMSIgc3Ryb2tlPSJub25lIiBzdHJva2Utd2lkdGg9IjEiIGZpbGw9Im5vbmUiIGZpbGwtcnVsZT0iZXZlbm9kZCI+CiAgICAgICAgPGcgaWQ9InYyLTQ4eDQ4IiB0cmFuc2Zvcm09InRyYW5zbGF0ZSgtMTUxNSwgLTMyODEpIj4KICAgICAgICAgICAgPGcgaWQ9ImlibS1jbG91ZC0tc2VjcmV0cy1tYW5hZ2VyKDEpIiB0cmFuc2Zvcm09InRyYW5zbGF0ZSgxNTE1LCAzMjgxKSI+CiAgICAgICAgICAgICAgICA8cGF0aCBkPSJNMjAsMTYgQzIwLDE1LjMgMTkuOCwxNC42IDE5LjQsMTQgTDIyLjcsMTAuNyBMMjEuMyw5LjMgTDE4LDEyLjYgQzE3LjQsMTIuMiAxNi43LDEyIDE2LDEyIEMxNS4zLDEyIDE0LjYsMTIuMiAxNCwxMi42IEwxMC43LDkuMyBMOS4zLDEwLjcgTDEyLjYsMTQgQzEyLjIsMTQuNiAxMiwxNS4zIDEyLDE2IEMxMiwxNi43IDEyLjIsMTcuNCAxMi42LDE4IEw5LjMsMjEuMyBMMTAuNywyMi43IEwxNCwxOS40IEMxNC42LDE5LjggMTUuMywyMCAxNiwyMCBDMTYuNywyMCAxNy40LDE5LjggMTgsMTkuNCBMMjEuMywyMi43IEwyMi43LDIxLjMgTDE5LjQsMTggQzE5LjgsMTcuNCAyMCwxNi43IDIwLDE2IFogTTE2LDE4IEMxNC45LDE4IDE0LDE3LjEgMTQsMTYgQzE0LDE0LjkgMTQuOSwxNCAxNiwxNCBDMTcuMSwxNCAxOCwxNC45IDE4LDE2IEMxOCwxNy4xIDE3LjEsMTggMTYsMTggWiIgaWQ9IlNoYXBlIiBmaWxsPSIjRkE0RTU2IiBmaWxsLXJ1bGU9Im5vbnplcm8iPjwvcGF0aD4KICAgICAgICAgICAgICAgIDxwYXRoIGQ9Ik0yNiwxNyBMMzIsMTcgTDMyLDE1IEwyOS45LDE1IEMyOS40LDcuNyAyMy40LDIgMTYsMiBDOC4zLDIgMiw4LjMgMiwxNiBDMiwyMy43IDguMywzMCAxNiwzMCBDMjEuMiwzMCAyNS43LDI3LjIgMjguMSwyMyBMMjYuNCwyMiBDMjQuMywyNS42IDIwLjUsMjggMTYsMjggQzkuNCwyOCA0LDIyLjYgNCwxNiBDNCw5LjQgOS40LDQgMTYsNCBDMjIuMyw0IDI3LjQsOC45IDI3LjksMTUgTDI2LDE1IEwyNiwxNyBaIiBpZD0iUGF0aCIgZmlsbD0iI0ZBNEU1NiIgZmlsbC1ydWxlPSJub256ZXJvIj48L3BhdGg+CiAgICAgICAgICAgICAgICA8cmVjdCBpZD0iX3gzQ19UcmFuc3BhcmVudF9SZWN0YW5nbGVfeDNFX181ODlfIiB4PSIwIiB5PSIwIiB3aWR0aD0iMzIiIGhlaWdodD0iMzIiPjwvcmVjdD4KICAgICAgICAgICAgPC9nPgogICAgICAgIDwvZz4KICAgIDwvZz4KPC9zdmc+;" parent="3krA8gDyzR80AWlKwZl9-8" vertex="1">
          <mxGeometry x="12" y="12" width="24" height="24" as="geometry" />
        </mxCell>
        <mxCell id="3krA8gDyzR80AWlKwZl9-16" value="SG" parent="0" />
        <object label="" release="v3.0.0" generation="2.0" id="3krA8gDyzR80AWlKwZl9-17">
          <mxCell style="rounded=0;whiteSpace=wrap;html=1;fontFamily=IBM Plex Sans;fontSize=14;fillColor=#FFF1F1;spacingBottom=-28;spacingTop=0;labelPosition=-100;verticalLabelPosition=top;align=center;verticalAlign=bottom;spacingLeft=9;spacing=0;expand=0;recursiveResize=0;spacingRight=0;container=1;collapsible=0;strokeColor=#FA4D56;strokeWidth=1;dashed=1;dashPattern=12 12;" parent="3krA8gDyzR80AWlKwZl9-16" vertex="1">
            <mxGeometry x="-538" y="-881" width="272" height="170" as="geometry">
              <mxRectangle width="670" as="alternateBounds" />
            </mxGeometry>
          </mxCell>
        </object>
        <mxCell id="3krA8gDyzR80AWlKwZl9-18" value="" style="rounded=0;whiteSpace=wrap;html=1;strokeColor=#FA4D56;fillColor=#FA4D56;fontFamily=IBM Plex Sans;fontSize=14;" parent="3krA8gDyzR80AWlKwZl9-17" vertex="1">
          <mxGeometry width="4" height="48" as="geometry" />
        </mxCell>
        <mxCell id="3krA8gDyzR80AWlKwZl9-19" value="test-sm-sg-module-example-group" style="text;html=1;strokeColor=none;fillColor=none;align=left;verticalAlign=middle;whiteSpace=wrap;rounded=0;fontFamily=IBM Plex Sans;fontSize=14;" parent="3krA8gDyzR80AWlKwZl9-17" vertex="1">
          <mxGeometry x="48" y="14" width="170" height="20" as="geometry" />
        </mxCell>
        <mxCell id="3krA8gDyzR80AWlKwZl9-20" value="" style="shape=image;aspect=fixed;image=data:image/svg+xml,PD94bWwgdmVyc2lvbj0iMS4wIiBlbmNvZGluZz0iVVRGLTgiPz4KPHN2ZyB3aWR0aD0iMzJweCIgaGVpZ2h0PSIzMnB4IiB2aWV3Qm94PSIwIDAgMzIgMzIiIHZlcnNpb249IjEuMSIgeG1sbnM9Imh0dHA6Ly93d3cudzMub3JnLzIwMDAvc3ZnIiB4bWxuczp4bGluaz0iaHR0cDovL3d3dy53My5vcmcvMTk5OS94bGluayI+CiAgICA8dGl0bGU+bG9ja2VkPC90aXRsZT4KICAgIDxnIGlkPSJQYWdlLTEiIHN0cm9rZT0ibm9uZSIgc3Ryb2tlLXdpZHRoPSIxIiBmaWxsPSJub25lIiBmaWxsLXJ1bGU9ImV2ZW5vZGQiPgogICAgICAgIDxnIGlkPSJ2Mi00OHg0OCIgdHJhbnNmb3JtPSJ0cmFuc2xhdGUoLTE1MTUsIC0zMTMzKSI+CiAgICAgICAgICAgIDxnIGlkPSJsb2NrZWQiIHRyYW5zZm9ybT0idHJhbnNsYXRlKDE1MTUsIDMxMzMpIj4KICAgICAgICAgICAgICAgIDxwYXRoIGQ9Ik0yNCwxNCBMMjIsMTQgTDIyLDggQzIyLDQuNjg2MjkxNSAxOS4zMTM3MDg1LDIgMTYsMiBDMTIuNjg2MjkxNSwyIDEwLDQuNjg2MjkxNSAxMCw4IEwxMCwxNCBMOCwxNCBDNi44OTU0MzA1LDE0IDYsMTQuODk1NDMwNSA2LDE2IEw2LDI4IEM2LDI5LjEwNDU2OTUgNi44OTU0MzA1LDMwIDgsMzAgTDI0LDMwIEMyNS4xMDQ1Njk1LDMwIDI2LDI5LjEwNDU2OTUgMjYsMjggTDI2LDE2IEMyNiwxNC44OTU0MzA1IDI1LjEwNDU2OTUsMTQgMjQsMTQgWiBNMTIsOCBDMTIsNS43OTA4NjEgMTMuNzkwODYxLDQgMTYsNCBDMTguMjA5MTM5LDQgMjAsNS43OTA4NjEgMjAsOCBMMjAsMTQgTDEyLDE0IEwxMiw4IFogTTI0LDI4IEw4LDI4IEw4LDE2IEwyNCwxNiBMMjQsMjggWiIgaWQ9IlNoYXBlIiBmaWxsPSIjRkE0RTU2IiBmaWxsLXJ1bGU9Im5vbnplcm8iPjwvcGF0aD4KICAgICAgICAgICAgICAgIDxyZWN0IGlkPSJfVHJhbnNwYXJlbnRfUmVjdGFuZ2xlXyIgeD0iMCIgeT0iMCIgd2lkdGg9IjMyIiBoZWlnaHQ9IjMyIj48L3JlY3Q+CiAgICAgICAgICAgIDwvZz4KICAgICAgICA8L2c+CiAgICA8L2c+Cjwvc3ZnPg==;" parent="3krA8gDyzR80AWlKwZl9-17" vertex="1">
          <mxGeometry x="12" y="12" width="24" height="24" as="geometry" />
        </mxCell>
        <object label="" release="v3.0.0" generation="2.0" id="3krA8gDyzR80AWlKwZl9-12">
          <mxCell style="rounded=0;whiteSpace=wrap;html=1;fontFamily=IBM Plex Sans;fontSize=14;fillColor=#FFF1F1;spacingBottom=-28;spacingTop=0;labelPosition=-100;verticalLabelPosition=top;align=center;verticalAlign=bottom;spacingLeft=9;spacing=0;expand=0;recursiveResize=0;spacingRight=0;container=1;collapsible=0;strokeColor=#FA4D56;strokeWidth=1;" parent="3krA8gDyzR80AWlKwZl9-16" vertex="1">
            <mxGeometry x="-538" y="-1061" width="272" height="170" as="geometry">
              <mxRectangle width="670" as="alternateBounds" />
            </mxGeometry>
          </mxCell>
        </object>
        <mxCell id="3krA8gDyzR80AWlKwZl9-13" value="" style="rounded=0;whiteSpace=wrap;html=1;strokeColor=#FA4D56;fillColor=#FA4D56;fontFamily=IBM Plex Sans;fontSize=14;" parent="3krA8gDyzR80AWlKwZl9-12" vertex="1">
          <mxGeometry width="4" height="48" as="geometry" />
        </mxCell>
        <mxCell id="3krA8gDyzR80AWlKwZl9-14" value="default secret-group" style="text;html=1;strokeColor=none;fillColor=none;align=left;verticalAlign=middle;whiteSpace=wrap;rounded=0;fontFamily=IBM Plex Sans;fontSize=14;" parent="3krA8gDyzR80AWlKwZl9-12" vertex="1">
          <mxGeometry x="48" y="14" width="170" height="20" as="geometry" />
        </mxCell>
        <mxCell id="3krA8gDyzR80AWlKwZl9-15" value="" style="shape=image;aspect=fixed;image=data:image/svg+xml,PD94bWwgdmVyc2lvbj0iMS4wIiBlbmNvZGluZz0iVVRGLTgiPz4KPHN2ZyB3aWR0aD0iMzJweCIgaGVpZ2h0PSIzMnB4IiB2aWV3Qm94PSIwIDAgMzIgMzIiIHZlcnNpb249IjEuMSIgeG1sbnM9Imh0dHA6Ly93d3cudzMub3JnLzIwMDAvc3ZnIiB4bWxuczp4bGluaz0iaHR0cDovL3d3dy53My5vcmcvMTk5OS94bGluayI+CiAgICA8dGl0bGU+bG9ja2VkPC90aXRsZT4KICAgIDxnIGlkPSJQYWdlLTEiIHN0cm9rZT0ibm9uZSIgc3Ryb2tlLXdpZHRoPSIxIiBmaWxsPSJub25lIiBmaWxsLXJ1bGU9ImV2ZW5vZGQiPgogICAgICAgIDxnIGlkPSJ2Mi00OHg0OCIgdHJhbnNmb3JtPSJ0cmFuc2xhdGUoLTE1MTUsIC0zMTMzKSI+CiAgICAgICAgICAgIDxnIGlkPSJsb2NrZWQiIHRyYW5zZm9ybT0idHJhbnNsYXRlKDE1MTUsIDMxMzMpIj4KICAgICAgICAgICAgICAgIDxwYXRoIGQ9Ik0yNCwxNCBMMjIsMTQgTDIyLDggQzIyLDQuNjg2MjkxNSAxOS4zMTM3MDg1LDIgMTYsMiBDMTIuNjg2MjkxNSwyIDEwLDQuNjg2MjkxNSAxMCw4IEwxMCwxNCBMOCwxNCBDNi44OTU0MzA1LDE0IDYsMTQuODk1NDMwNSA2LDE2IEw2LDI4IEM2LDI5LjEwNDU2OTUgNi44OTU0MzA1LDMwIDgsMzAgTDI0LDMwIEMyNS4xMDQ1Njk1LDMwIDI2LDI5LjEwNDU2OTUgMjYsMjggTDI2LDE2IEMyNiwxNC44OTU0MzA1IDI1LjEwNDU2OTUsMTQgMjQsMTQgWiBNMTIsOCBDMTIsNS43OTA4NjEgMTMuNzkwODYxLDQgMTYsNCBDMTguMjA5MTM5LDQgMjAsNS43OTA4NjEgMjAsOCBMMjAsMTQgTDEyLDE0IEwxMiw4IFogTTI0LDI4IEw4LDI4IEw4LDE2IEwyNCwxNiBMMjQsMjggWiIgaWQ9IlNoYXBlIiBmaWxsPSIjRkE0RTU2IiBmaWxsLXJ1bGU9Im5vbnplcm8iPjwvcGF0aD4KICAgICAgICAgICAgICAgIDxyZWN0IGlkPSJfVHJhbnNwYXJlbnRfUmVjdGFuZ2xlXyIgeD0iMCIgeT0iMCIgd2lkdGg9IjMyIiBoZWlnaHQ9IjMyIj48L3JlY3Q+CiAgICAgICAgICAgIDwvZz4KICAgICAgICA8L2c+CiAgICA8L2c+Cjwvc3ZnPg==;" parent="3krA8gDyzR80AWlKwZl9-12" vertex="1">
          <mxGeometry x="12" y="12" width="24" height="24" as="geometry" />
        </mxCell>
        <mxCell id="DygciU7ir5P4Vzxs_aio-2" value="Payloads" parent="0" />
        <mxCell id="SxZ0vQrJ2zCvf2xrPSUh-3" value="Metadata instructions" parent="0" />
        <mxCell id="3krA8gDyzR80AWlKwZl9-32" value="Secrets" parent="0" />
        <mxCell id="3krA8gDyzR80AWlKwZl9-26" value="" style="container=1;collapsible=0;expand=0;recursiveResize=0;html=1;whiteSpace=wrap;strokeColor=#878D96;fillColor=default;strokeWidth=1" parent="3krA8gDyzR80AWlKwZl9-32" vertex="1">
          <mxGeometry x="-397" y="-833" width="110" height="112" as="geometry" />
        </mxCell>
        <mxCell id="3krA8gDyzR80AWlKwZl9-27" value="Secret D&#xa;(to be added)" style="shape=rect;fillColor=#878D96;aspect=fixed;resizable=0;labelPosition=right;verticalLabelPosition=middle;align=left;verticalAlign=middle;strokeColor=none;part=1;spacingLeft=5;fontSize=14;" parent="3krA8gDyzR80AWlKwZl9-26" vertex="1">
          <mxGeometry width="4" height="48" relative="1" as="geometry" />
        </mxCell>
        <mxCell id="3krA8gDyzR80AWlKwZl9-30" value="" style="container=1;collapsible=0;expand=0;recursiveResize=0;html=1;whiteSpace=wrap;strokeColor=#878D96;fillColor=default;strokeWidth=1" parent="3krA8gDyzR80AWlKwZl9-32" vertex="1">
          <mxGeometry x="-517" y="-833" width="110" height="112" as="geometry" />
        </mxCell>
        <mxCell id="3krA8gDyzR80AWlKwZl9-31" value="Secret C &#xa;(to be added)" style="shape=rect;fillColor=#878D96;aspect=fixed;resizable=0;labelPosition=right;verticalLabelPosition=middle;align=left;verticalAlign=middle;strokeColor=none;part=1;spacingLeft=5;fontSize=14;" parent="3krA8gDyzR80AWlKwZl9-30" vertex="1">
          <mxGeometry width="4" height="48" relative="1" as="geometry" />
        </mxCell>
        <mxCell id="3krA8gDyzR80AWlKwZl9-28" value="" style="container=1;collapsible=0;expand=0;recursiveResize=0;html=1;whiteSpace=wrap;strokeColor=#878D96;fillColor=default;strokeWidth=1" parent="3krA8gDyzR80AWlKwZl9-32" vertex="1">
          <mxGeometry x="-397" y="-1013" width="110" height="112" as="geometry" />
        </mxCell>
        <mxCell id="3krA8gDyzR80AWlKwZl9-29" value="Secret B" style="shape=rect;fillColor=#878D96;aspect=fixed;resizable=0;labelPosition=right;verticalLabelPosition=middle;align=left;verticalAlign=middle;strokeColor=none;part=1;spacingLeft=5;fontSize=14;" parent="3krA8gDyzR80AWlKwZl9-28" vertex="1">
          <mxGeometry width="4" height="48" relative="1" as="geometry" />
        </mxCell>
        <mxCell id="3krA8gDyzR80AWlKwZl9-24" value="" style="container=1;collapsible=0;expand=0;recursiveResize=0;html=1;whiteSpace=wrap;strokeColor=#878D96;fillColor=default;strokeWidth=1" parent="3krA8gDyzR80AWlKwZl9-32" vertex="1">
          <mxGeometry x="-517" y="-1013" width="110" height="112" as="geometry" />
        </mxCell>
        <mxCell id="3krA8gDyzR80AWlKwZl9-25" value="Secret A" style="shape=rect;fillColor=#878D96;aspect=fixed;resizable=0;labelPosition=right;verticalLabelPosition=middle;align=left;verticalAlign=middle;strokeColor=none;part=1;spacingLeft=5;fontSize=14;" parent="3krA8gDyzR80AWlKwZl9-24" vertex="1">
          <mxGeometry width="4" height="48" relative="1" as="geometry" />
        </mxCell>
        <mxCell id="3krA8gDyzR80AWlKwZl9-33" value="Credentials" parent="0" />
        <mxCell id="3krA8gDyzR80AWlKwZl9-22" value="API Key 1" style="shape=rect;fillColor=#FA4D56;aspect=fixed;resizable=0;labelPosition=center;verticalLabelPosition=bottom;align=center;verticalAlign=top;strokeColor=none;fontSize=14;" parent="3krA8gDyzR80AWlKwZl9-33" vertex="1">
          <mxGeometry x="-486" y="-971" width="48" height="48" as="geometry" />
        </mxCell>
        <mxCell id="3krA8gDyzR80AWlKwZl9-23" value="" style="fillColor=#ffffff;strokeColor=none;dashed=0;outlineConnect=0;html=1;labelPosition=center;verticalLabelPosition=bottom;verticalAlign=top;part=1;movable=0;resizable=0;rotatable=0;shape=mxgraph.ibm_cloud.password" parent="3krA8gDyzR80AWlKwZl9-22" vertex="1">
          <mxGeometry width="24" height="24" relative="1" as="geometry">
            <mxPoint x="12" y="12" as="offset" />
          </mxGeometry>
        </mxCell>
        <mxCell id="3krA8gDyzR80AWlKwZl9-34" value="API Key 3" style="shape=rect;fillColor=#FA4D56;aspect=fixed;resizable=0;labelPosition=center;verticalLabelPosition=bottom;align=center;verticalAlign=top;strokeColor=none;fontSize=14;" parent="3krA8gDyzR80AWlKwZl9-33" vertex="1">
          <mxGeometry x="-488" y="-791" width="48" height="48" as="geometry" />
        </mxCell>
        <mxCell id="3krA8gDyzR80AWlKwZl9-35" value="" style="fillColor=#ffffff;strokeColor=none;dashed=0;outlineConnect=0;html=1;labelPosition=center;verticalLabelPosition=bottom;verticalAlign=top;part=1;movable=0;resizable=0;rotatable=0;shape=mxgraph.ibm_cloud.password" parent="3krA8gDyzR80AWlKwZl9-34" vertex="1">
          <mxGeometry width="24" height="24" relative="1" as="geometry">
            <mxPoint x="12" y="12" as="offset" />
          </mxGeometry>
        </mxCell>
        <mxCell id="3krA8gDyzR80AWlKwZl9-38" value="API Key 2" style="shape=rect;fillColor=#FA4D56;aspect=fixed;resizable=0;labelPosition=center;verticalLabelPosition=bottom;align=center;verticalAlign=top;strokeColor=none;fontSize=14;" parent="3krA8gDyzR80AWlKwZl9-33" vertex="1">
          <mxGeometry x="-366" y="-971" width="48" height="48" as="geometry" />
        </mxCell>
        <mxCell id="3krA8gDyzR80AWlKwZl9-39" value="" style="fillColor=#ffffff;strokeColor=none;dashed=0;outlineConnect=0;html=1;labelPosition=center;verticalLabelPosition=bottom;verticalAlign=top;part=1;movable=0;resizable=0;rotatable=0;shape=mxgraph.ibm_cloud.password" parent="3krA8gDyzR80AWlKwZl9-38" vertex="1">
          <mxGeometry width="24" height="24" relative="1" as="geometry">
            <mxPoint x="12" y="12" as="offset" />
          </mxGeometry>
        </mxCell>
        <mxCell id="3krA8gDyzR80AWlKwZl9-36" value="API Key 4" style="shape=rect;fillColor=#FA4D56;aspect=fixed;resizable=0;labelPosition=center;verticalLabelPosition=bottom;align=center;verticalAlign=top;strokeColor=none;fontSize=14;" parent="3krA8gDyzR80AWlKwZl9-33" vertex="1">
          <mxGeometry x="-366" y="-791" width="48" height="48" as="geometry" />
        </mxCell>
        <mxCell id="3krA8gDyzR80AWlKwZl9-37" value="" style="fillColor=#ffffff;strokeColor=none;dashed=0;outlineConnect=0;html=1;labelPosition=center;verticalLabelPosition=bottom;verticalAlign=top;part=1;movable=0;resizable=0;rotatable=0;shape=mxgraph.ibm_cloud.password" parent="3krA8gDyzR80AWlKwZl9-36" vertex="1">
          <mxGeometry width="24" height="24" relative="1" as="geometry">
            <mxPoint x="12" y="12" as="offset" />
          </mxGeometry>
        </mxCell>
      </root>
    </mxGraphModel>
  </diagram>
</mxfile>
